<mxfile host="app.diagrams.net" modified="2023-06-20T10:13:02.613Z" agent="Mozilla/5.0 (X11; Ubuntu; Linux x86_64; rv:109.0) Gecko/20100101 Firefox/114.0" etag="s1BXYgp-jXDiLNW3Fb3v" version="21.1.5" type="device">
  <diagram name="Page-1" id="MR886Cy3C2vmONpptm1g">
    <mxGraphModel dx="1434" dy="795" grid="1" gridSize="10" guides="1" tooltips="1" connect="1" arrows="1" fold="1" page="1" pageScale="1" pageWidth="850" pageHeight="1100" math="1" shadow="0">
      <root>
        <mxCell id="0" />
        <mxCell id="1" parent="0" />
        <mxCell id="-HJEB60_RRp2c4dYzQ01-13" value="" style="endArrow=classic;html=1;rounded=0;strokeWidth=4;dashed=1;" parent="1" edge="1">
          <mxGeometry width="50" height="50" relative="1" as="geometry">
            <mxPoint x="160" y="340" as="sourcePoint" />
            <mxPoint x="720" y="340" as="targetPoint" />
          </mxGeometry>
        </mxCell>
        <mxCell id="-HJEB60_RRp2c4dYzQ01-14" value="&lt;font style=&quot;&quot;&gt;&lt;font style=&quot;font-size: 30px;&quot; face=&quot;Times New Roman&quot;&gt;&lt;b&gt;STS&lt;/b&gt;&lt;/font&gt;&lt;br&gt;&lt;/font&gt;" style="text;html=1;strokeColor=none;fillColor=none;align=center;verticalAlign=middle;whiteSpace=wrap;rounded=0;" parent="1" vertex="1">
          <mxGeometry x="90" y="320" width="60" height="30" as="geometry" />
        </mxCell>
        <mxCell id="-HJEB60_RRp2c4dYzQ01-60" value="" style="rounded=0;whiteSpace=wrap;html=1;fillColor=#0066CC;fontColor=#ffffff;strokeColor=#000000;gradientColor=#FFFFFF;strokeWidth=2;" parent="1" vertex="1">
          <mxGeometry x="460" y="380" width="20" height="240" as="geometry" />
        </mxCell>
        <mxCell id="-HJEB60_RRp2c4dYzQ01-77" value="&lt;font style=&quot;&quot;&gt;&lt;font face=&quot;Times New Roman&quot; style=&quot;font-size: 30px;&quot;&gt;&lt;b&gt;Pattern&lt;/b&gt;&lt;/font&gt;&lt;br&gt;&lt;/font&gt;" style="text;html=1;strokeColor=none;fillColor=none;align=center;verticalAlign=middle;whiteSpace=wrap;rounded=0;rotation=0;" parent="1" vertex="1">
          <mxGeometry x="90" y="630" width="60" height="30" as="geometry" />
        </mxCell>
        <mxCell id="Ikf6FC7bm7aYhZ_6xAEj-2" value="" style="rounded=0;whiteSpace=wrap;html=1;fillColor=#1c71d8;fontColor=#ffffff;strokeColor=#000000;gradientColor=#FFFFFF;strokeWidth=2;" vertex="1" parent="1">
          <mxGeometry x="440" y="380" width="20" height="240" as="geometry" />
        </mxCell>
        <mxCell id="Ikf6FC7bm7aYhZ_6xAEj-3" value="" style="rounded=0;whiteSpace=wrap;html=1;fillColor=#3584e4;fontColor=#ffffff;strokeColor=#000000;gradientColor=#FFFFFF;strokeWidth=2;" vertex="1" parent="1">
          <mxGeometry x="420" y="380" width="20" height="240" as="geometry" />
        </mxCell>
        <mxCell id="Ikf6FC7bm7aYhZ_6xAEj-6" value="" style="rounded=0;whiteSpace=wrap;html=1;fillColor=#3584e4;fontColor=#ffffff;strokeColor=#000000;gradientColor=#FFFFFF;strokeWidth=2;" vertex="1" parent="1">
          <mxGeometry x="400" y="380" width="20" height="240" as="geometry" />
        </mxCell>
        <mxCell id="Ikf6FC7bm7aYhZ_6xAEj-7" value="" style="rounded=0;whiteSpace=wrap;html=1;fillColor=#62a0ea;fontColor=#ffffff;strokeColor=#000000;gradientColor=#FFFFFF;strokeWidth=2;" vertex="1" parent="1">
          <mxGeometry x="380" y="380" width="20" height="240" as="geometry" />
        </mxCell>
        <mxCell id="Ikf6FC7bm7aYhZ_6xAEj-8" value="" style="rounded=0;whiteSpace=wrap;html=1;fillColor=#62a0ea;fontColor=#ffffff;strokeColor=#000000;gradientColor=#FFFFFF;strokeWidth=2;" vertex="1" parent="1">
          <mxGeometry x="360" y="380" width="20" height="240" as="geometry" />
        </mxCell>
        <mxCell id="Ikf6FC7bm7aYhZ_6xAEj-9" value="" style="rounded=0;whiteSpace=wrap;html=1;fillColor=#62a0ea;fontColor=#ffffff;strokeColor=#000000;gradientColor=#FFFFFF;strokeWidth=2;" vertex="1" parent="1">
          <mxGeometry x="340" y="380" width="20" height="240" as="geometry" />
        </mxCell>
        <mxCell id="Ikf6FC7bm7aYhZ_6xAEj-10" value="" style="rounded=0;whiteSpace=wrap;html=1;fillColor=#A9C4EB;fontColor=#ffffff;strokeColor=#000000;gradientColor=#FFFFFF;strokeWidth=2;" vertex="1" parent="1">
          <mxGeometry x="320" y="380" width="20" height="240" as="geometry" />
        </mxCell>
        <mxCell id="Ikf6FC7bm7aYhZ_6xAEj-11" value="" style="rounded=0;whiteSpace=wrap;html=1;fillColor=#A9C4EB;fontColor=#ffffff;strokeColor=#000000;gradientColor=#FFFFFF;strokeWidth=2;" vertex="1" parent="1">
          <mxGeometry x="300" y="380" width="20" height="240" as="geometry" />
        </mxCell>
        <mxCell id="Ikf6FC7bm7aYhZ_6xAEj-12" value="" style="rounded=0;whiteSpace=wrap;html=1;fillColor=#A9C4EB;fontColor=#ffffff;strokeColor=#000000;gradientColor=#FFFFFF;strokeWidth=2;" vertex="1" parent="1">
          <mxGeometry x="280" y="380" width="20" height="240" as="geometry" />
        </mxCell>
        <mxCell id="Ikf6FC7bm7aYhZ_6xAEj-13" value="" style="rounded=0;whiteSpace=wrap;html=1;fillColor=#A9C4EB;fontColor=#ffffff;strokeColor=#000000;gradientColor=#FFFFFF;strokeWidth=2;" vertex="1" parent="1">
          <mxGeometry x="260" y="380" width="20" height="240" as="geometry" />
        </mxCell>
        <mxCell id="Ikf6FC7bm7aYhZ_6xAEj-14" value="" style="rounded=0;whiteSpace=wrap;html=1;fillColor=#A9C4EB;fontColor=#ffffff;strokeColor=#000000;gradientColor=#FFFFFF;strokeWidth=2;" vertex="1" parent="1">
          <mxGeometry x="240" y="380" width="20" height="240" as="geometry" />
        </mxCell>
        <mxCell id="Ikf6FC7bm7aYhZ_6xAEj-15" value="" style="rounded=0;whiteSpace=wrap;html=1;fillColor=#A9C4EB;fontColor=#ffffff;strokeColor=#000000;gradientColor=#FFFFFF;strokeWidth=2;" vertex="1" parent="1">
          <mxGeometry x="220" y="380" width="20" height="240" as="geometry" />
        </mxCell>
        <mxCell id="Ikf6FC7bm7aYhZ_6xAEj-16" value="" style="rounded=0;whiteSpace=wrap;html=1;fillColor=#A9C4EB;fontColor=#ffffff;strokeColor=#000000;gradientColor=#FFFFFF;strokeWidth=2;" vertex="1" parent="1">
          <mxGeometry x="200" y="380" width="20" height="240" as="geometry" />
        </mxCell>
        <mxCell id="Ikf6FC7bm7aYhZ_6xAEj-17" value="" style="rounded=0;whiteSpace=wrap;html=1;fillColor=#A9C4EB;fontColor=#ffffff;strokeColor=#000000;gradientColor=#FFFFFF;strokeWidth=2;" vertex="1" parent="1">
          <mxGeometry x="180" y="380" width="20" height="240" as="geometry" />
        </mxCell>
        <mxCell id="Ikf6FC7bm7aYhZ_6xAEj-18" value="" style="rounded=0;whiteSpace=wrap;html=1;fillColor=#A9C4EB;fontColor=#ffffff;strokeColor=#000000;gradientColor=#FFFFFF;strokeWidth=2;" vertex="1" parent="1">
          <mxGeometry x="160" y="380" width="20" height="240" as="geometry" />
        </mxCell>
        <mxCell id="Ikf6FC7bm7aYhZ_6xAEj-21" value="" style="curved=1;endArrow=none;html=1;rounded=0;strokeWidth=4;endFill=0;" edge="1" parent="1">
          <mxGeometry width="50" height="50" relative="1" as="geometry">
            <mxPoint x="60" y="620" as="sourcePoint" />
            <mxPoint x="60" y="380" as="targetPoint" />
            <Array as="points">
              <mxPoint x="100" y="540" />
              <mxPoint x="20" y="540" />
              <mxPoint x="100" y="460" />
              <mxPoint x="20" y="460" />
            </Array>
          </mxGeometry>
        </mxCell>
        <mxCell id="Ikf6FC7bm7aYhZ_6xAEj-22" style="edgeStyle=orthogonalEdgeStyle;rounded=0;orthogonalLoop=1;jettySize=auto;html=1;exitX=0.5;exitY=1;exitDx=0;exitDy=0;" edge="1" parent="1" source="-HJEB60_RRp2c4dYzQ01-77" target="-HJEB60_RRp2c4dYzQ01-77">
          <mxGeometry relative="1" as="geometry" />
        </mxCell>
        <mxCell id="Ikf6FC7bm7aYhZ_6xAEj-24" value="" style="rounded=0;whiteSpace=wrap;html=1;fillColor=#3584e4;fontColor=#ffffff;strokeColor=#000000;gradientColor=#FFFFFF;strokeWidth=2;" vertex="1" parent="1">
          <mxGeometry x="480" y="380" width="20" height="240" as="geometry" />
        </mxCell>
        <mxCell id="Ikf6FC7bm7aYhZ_6xAEj-25" value="" style="rounded=0;whiteSpace=wrap;html=1;fillColor=#3584e4;fontColor=#ffffff;strokeColor=#000000;gradientColor=#FFFFFF;strokeWidth=2;" vertex="1" parent="1">
          <mxGeometry x="500" y="380" width="20" height="240" as="geometry" />
        </mxCell>
        <mxCell id="Ikf6FC7bm7aYhZ_6xAEj-26" value="" style="rounded=0;whiteSpace=wrap;html=1;fillColor=#62a0ea;fontColor=#ffffff;strokeColor=#000000;gradientColor=#FFFFFF;strokeWidth=2;" vertex="1" parent="1">
          <mxGeometry x="520" y="380" width="20" height="240" as="geometry" />
        </mxCell>
        <mxCell id="Ikf6FC7bm7aYhZ_6xAEj-27" value="" style="rounded=0;whiteSpace=wrap;html=1;fillColor=#62a0ea;fontColor=#ffffff;strokeColor=#000000;gradientColor=#FFFFFF;strokeWidth=2;" vertex="1" parent="1">
          <mxGeometry x="540" y="380" width="20" height="240" as="geometry" />
        </mxCell>
        <mxCell id="Ikf6FC7bm7aYhZ_6xAEj-28" value="" style="rounded=0;whiteSpace=wrap;html=1;fillColor=#62a0ea;fontColor=#ffffff;strokeColor=#000000;gradientColor=#FFFFFF;strokeWidth=2;" vertex="1" parent="1">
          <mxGeometry x="560" y="380" width="20" height="240" as="geometry" />
        </mxCell>
        <mxCell id="Ikf6FC7bm7aYhZ_6xAEj-29" value="" style="rounded=0;whiteSpace=wrap;html=1;fillColor=#A9C4EB;fontColor=#ffffff;strokeColor=#000000;gradientColor=#FFFFFF;strokeWidth=2;" vertex="1" parent="1">
          <mxGeometry x="580" y="380" width="20" height="240" as="geometry" />
        </mxCell>
        <mxCell id="Ikf6FC7bm7aYhZ_6xAEj-30" value="" style="rounded=0;whiteSpace=wrap;html=1;fillColor=#A9C4EB;fontColor=#ffffff;strokeColor=#000000;gradientColor=#FFFFFF;strokeWidth=2;" vertex="1" parent="1">
          <mxGeometry x="600" y="380" width="20" height="240" as="geometry" />
        </mxCell>
        <mxCell id="Ikf6FC7bm7aYhZ_6xAEj-31" value="" style="rounded=0;whiteSpace=wrap;html=1;fillColor=#A9C4EB;fontColor=#ffffff;strokeColor=#000000;gradientColor=#FFFFFF;strokeWidth=2;" vertex="1" parent="1">
          <mxGeometry x="620" y="380" width="20" height="240" as="geometry" />
        </mxCell>
        <mxCell id="Ikf6FC7bm7aYhZ_6xAEj-32" value="" style="rounded=0;whiteSpace=wrap;html=1;fillColor=#A9C4EB;fontColor=#ffffff;strokeColor=#000000;gradientColor=#FFFFFF;strokeWidth=2;" vertex="1" parent="1">
          <mxGeometry x="640" y="380" width="20" height="240" as="geometry" />
        </mxCell>
        <mxCell id="Ikf6FC7bm7aYhZ_6xAEj-33" value="" style="rounded=0;whiteSpace=wrap;html=1;fillColor=#A9C4EB;fontColor=#ffffff;strokeColor=#000000;gradientColor=#FFFFFF;strokeWidth=2;" vertex="1" parent="1">
          <mxGeometry x="660" y="380" width="20" height="240" as="geometry" />
        </mxCell>
        <mxCell id="Ikf6FC7bm7aYhZ_6xAEj-34" value="" style="rounded=0;whiteSpace=wrap;html=1;fillColor=#A9C4EB;fontColor=#ffffff;strokeColor=#000000;gradientColor=#FFFFFF;strokeWidth=2;" vertex="1" parent="1">
          <mxGeometry x="680" y="380" width="20" height="240" as="geometry" />
        </mxCell>
        <mxCell id="Ikf6FC7bm7aYhZ_6xAEj-35" value="" style="rounded=0;whiteSpace=wrap;html=1;fillColor=#A9C4EB;fontColor=#ffffff;strokeColor=#000000;gradientColor=#FFFFFF;strokeWidth=2;" vertex="1" parent="1">
          <mxGeometry x="700" y="380" width="20" height="240" as="geometry" />
        </mxCell>
        <mxCell id="Ikf6FC7bm7aYhZ_6xAEj-45" value="" style="curved=1;endArrow=none;html=1;rounded=0;endFill=0;strokeWidth=4;" edge="1" parent="1">
          <mxGeometry width="50" height="50" relative="1" as="geometry">
            <mxPoint x="160" y="280" as="sourcePoint" />
            <mxPoint x="720" y="280" as="targetPoint" />
            <Array as="points">
              <mxPoint x="290" y="270" />
              <mxPoint x="370" y="320" />
              <mxPoint x="410" y="240" />
              <mxPoint x="490" y="320" />
              <mxPoint x="530" y="240" />
              <mxPoint x="630" y="290" />
            </Array>
          </mxGeometry>
        </mxCell>
        <mxCell id="Ikf6FC7bm7aYhZ_6xAEj-46" value="" style="endArrow=classic;html=1;rounded=0;strokeWidth=4;dashed=1;" edge="1" parent="1">
          <mxGeometry width="50" height="50" relative="1" as="geometry">
            <mxPoint x="120" y="620" as="sourcePoint" />
            <mxPoint x="120" y="380" as="targetPoint" />
          </mxGeometry>
        </mxCell>
        <mxCell id="Ikf6FC7bm7aYhZ_6xAEj-47" value="" style="rounded=0;whiteSpace=wrap;html=1;fillColor=#e01b24;strokeWidth=5;strokeColor=#e01b24;fillStyle=cross-hatch;" vertex="1" parent="1">
          <mxGeometry x="240" y="380" width="80" height="240" as="geometry" />
        </mxCell>
        <mxCell id="Ikf6FC7bm7aYhZ_6xAEj-48" value="" style="rounded=0;whiteSpace=wrap;html=1;fillColor=#e01b24;strokeWidth=5;strokeColor=#e01b24;fillStyle=cross-hatch;" vertex="1" parent="1">
          <mxGeometry x="620" y="380" width="20" height="240" as="geometry" />
        </mxCell>
        <mxCell id="Ikf6FC7bm7aYhZ_6xAEj-49" value="" style="endArrow=classic;html=1;rounded=0;exitX=1;exitY=0;exitDx=0;exitDy=0;strokeWidth=3;strokeColor=#e01b24;" edge="1" parent="1" source="Ikf6FC7bm7aYhZ_6xAEj-47">
          <mxGeometry width="50" height="50" relative="1" as="geometry">
            <mxPoint x="400" y="560" as="sourcePoint" />
            <mxPoint x="320" y="340" as="targetPoint" />
          </mxGeometry>
        </mxCell>
        <mxCell id="Ikf6FC7bm7aYhZ_6xAEj-50" value="" style="rounded=0;whiteSpace=wrap;html=1;fillColor=#e01b24;strokeWidth=5;strokeColor=#e01b24;fillStyle=cross-hatch;" vertex="1" parent="1">
          <mxGeometry x="560" y="380" width="20" height="240" as="geometry" />
        </mxCell>
        <mxCell id="Ikf6FC7bm7aYhZ_6xAEj-51" value="" style="rounded=0;whiteSpace=wrap;html=1;fillColor=#e01b24;strokeWidth=5;strokeColor=#e01b24;fillStyle=cross-hatch;" vertex="1" parent="1">
          <mxGeometry x="500" y="380" width="20" height="240" as="geometry" />
        </mxCell>
        <mxCell id="Ikf6FC7bm7aYhZ_6xAEj-52" value="" style="rounded=0;whiteSpace=wrap;html=1;fillColor=#e01b24;strokeWidth=5;strokeColor=#e01b24;fillStyle=cross-hatch;" vertex="1" parent="1">
          <mxGeometry x="440" y="380" width="20" height="240" as="geometry" />
        </mxCell>
        <mxCell id="Ikf6FC7bm7aYhZ_6xAEj-53" value="" style="endArrow=classic;html=1;rounded=0;exitX=0;exitY=0;exitDx=0;exitDy=0;strokeWidth=3;strokeColor=#e01b24;" edge="1" parent="1" source="Ikf6FC7bm7aYhZ_6xAEj-32">
          <mxGeometry width="50" height="50" relative="1" as="geometry">
            <mxPoint x="330" y="390" as="sourcePoint" />
            <mxPoint x="640" y="340" as="targetPoint" />
          </mxGeometry>
        </mxCell>
        <mxCell id="Ikf6FC7bm7aYhZ_6xAEj-54" value="" style="endArrow=classic;startArrow=classic;html=1;rounded=0;strokeWidth=3;" edge="1" parent="1">
          <mxGeometry width="50" height="50" relative="1" as="geometry">
            <mxPoint x="450" y="640" as="sourcePoint" />
            <mxPoint x="510" y="640" as="targetPoint" />
          </mxGeometry>
        </mxCell>
        <mxCell id="Ikf6FC7bm7aYhZ_6xAEj-55" value="" style="endArrow=classic;startArrow=classic;html=1;rounded=0;strokeWidth=3;" edge="1" parent="1">
          <mxGeometry width="50" height="50" relative="1" as="geometry">
            <mxPoint x="510" y="640" as="sourcePoint" />
            <mxPoint x="570" y="640" as="targetPoint" />
          </mxGeometry>
        </mxCell>
        <mxCell id="Ikf6FC7bm7aYhZ_6xAEj-56" value="" style="endArrow=classic;startArrow=classic;html=1;rounded=0;strokeWidth=3;" edge="1" parent="1">
          <mxGeometry width="50" height="50" relative="1" as="geometry">
            <mxPoint x="570" y="640" as="sourcePoint" />
            <mxPoint x="630" y="640" as="targetPoint" />
          </mxGeometry>
        </mxCell>
        <mxCell id="Ikf6FC7bm7aYhZ_6xAEj-58" value="&lt;div&gt;&lt;font style=&quot;&quot;&gt;&lt;font style=&quot;font-size: 30px;&quot; face=&quot;Times New Roman&quot;&gt;&lt;b&gt;$$\delta_t$$&lt;/b&gt;&lt;/font&gt;&lt;/font&gt;&lt;/div&gt;" style="text;html=1;strokeColor=none;fillColor=none;align=center;verticalAlign=middle;whiteSpace=wrap;rounded=0;" vertex="1" parent="1">
          <mxGeometry x="510" y="650" width="60" height="30" as="geometry" />
        </mxCell>
      </root>
    </mxGraphModel>
  </diagram>
</mxfile>
